<svg data-name="Layer 1" xmlns="http://www.w3.org/2000/svg" viewBox="0 0 55.5 87.28"><defs><radialGradient id="a" cx=".89" cy="17.74" r="33.44" gradientTransform="translate(27.04 24.74)scale(1.09)" gradientUnits="userSpaceOnUse"><stop offset=".17" stop-color="#fff"/><stop offset=".3" stop-color="#f6ede4"/><stop offset=".69" stop-color="#debe9b"/><stop offset=".87" stop-color="#d4ac7f"/></radialGradient></defs><path d="M28 87.36a3.8 3.8 0 0 1-1.05-1.16l-.06-.09h-.11C8.65 81.86-1.45 54 .83 31.71a48 48 0 0 1 1.29-7.25 35.4 35.4 0 0 1 2.33-6.39 23.6 23.6 0 0 1 3.75-5.65A14.7 14.7 0 0 1 19 7.28a.33.33 0 0 0 .33-.28 5.49 5.49 0 0 1 3.88-2.6h.19v-.19A4.69 4.69 0 0 1 28 .64a4.76 4.76 0 0 1 4.56 3.54v.19h.19A5.51 5.51 0 0 1 36.67 7a.32.32 0 0 0 .37.26 14.7 14.7 0 0 1 10.77 5.13 24 24 0 0 1 4.24 6.71l.23.55a42.6 42.6 0 0 1 2.89 12C57.45 54 47.35 81.86 29.23 86.08h-.11l-.06.09A3.8 3.8 0 0 1 28 87.36" transform="translate(-.25 -.36)" style="fill:url(#a)"/><path d="M55.43 31.68a50 50 0 0 0-.86-5.5 40 40 0 0 0-1.39-4.93 31.3 31.3 0 0 0-2.23-4.93 22.6 22.6 0 0 0-3-4.1A14.94 14.94 0 0 0 37 7h-.06a5.77 5.77 0 0 0-4.16-2.91 4.93 4.93 0 0 0-9.56 0A5.77 5.77 0 0 0 19.06 7H19a14.94 14.94 0 0 0-11 5.23 22.6 22.6 0 0 0-3 4.1 31.3 31.3 0 0 0-2.23 4.93 40 40 0 0 0-1.39 4.93 50 50 0 0 0-.86 5.5C-1.73 54.3 8.44 82.1 26.73 86.36A3.17 3.17 0 0 0 28 87.64a3.17 3.17 0 0 0 1.27-1.28C47.56 82.1 57.73 54.3 55.43 31.68M28 1.23A3.9 3.9 0 0 1 31.93 4a4.86 4.86 0 0 0-3.86 2.47.17.17 0 0 1-.07.09.15.15 0 0 1-.07-.09A4.86 4.86 0 0 0 24.07 4 3.9 3.9 0 0 1 28 1.23m-1.86 4.29a3.5 3.5 0 0 1 1.59 2.11A.46.46 0 0 0 28 8a.46.46 0 0 0 .27-.42 3.5 3.5 0 0 1 1.59-2.11 4.19 4.19 0 0 1 6 1.58 13 13 0 0 0-1.67.42 6.6 6.6 0 0 0-2.38 1.32 9.4 9.4 0 0 0-3 6.1c-.67 7.31 7.72 6.16 8.14 6.13 1.08 0 1.9-1.71 1.9-4s-.84-4-1.9-4c-.65 0-1.77.52-1.88 2.55-.07 1.53.63 3.43 1.53 3.54.47.06.89-.76 1-1.6s.06-1.87-.59-2a.38.38 0 0 0-.46.28A3.8 3.8 0 0 1 37 17.1c0 1.25-1.28.63-1.12-1.36.12-1.74 1.01-1.65 1.05-1.65.5 0 1.26 1 1.26 3 0 1.75-.84 3.63-2.46 2.65-1.36-1-1.89-3.28-1.52-5 .17-.81.87-3 3.13-3 3.26 0 6.3 1.71 8.72 4.9-.27.85-1.95 4.1-7.28 7.21l-.29.15a11 11 0 0 0-4.93-1 27 27 0 0 0-4.64.74 4 4 0 0 1-.92.15 4 4 0 0 1-.92-.15 27 27 0 0 0-4.64-.74 11 11 0 0 0-4.93 1l-.29-.15c-5.34-3.11-7-6.36-7.28-7.21 2.42-3.19 5.46-4.9 8.72-4.9 2.26 0 3 2.21 3.13 3 .38 1.77-.16 4.05-1.52 5-1.61 1-2.46-.9-2.46-2.65 0-2 .76-3 1.26-3 0 0 .94-.11 1.09 1.65.17 2-1.09 2.61-1.12 1.36a3.8 3.8 0 0 1 .39-1.34.38.38 0 0 0-.43-.28c-.65.16-.71 1.3-.59 2s.56 1.66 1 1.6c.9-.12 1.6-2 1.52-3.44-.1-2-1.23-2.55-1.88-2.55-1.06 0-1.9 1.71-1.9 4s.82 4 1.9 4c.42 0 8.81 1.18 8.14-6.13a9.4 9.4 0 0 0-3-6.1 6.6 6.6 0 0 0-2.38-1.32 13 13 0 0 0-1.71-.44 4.19 4.19 0 0 1 6.04-1.58M10.28 36.18a33 33 0 0 0-.28 3.31 44.4 44.4 0 0 0 2 15.25 49.5 49.5 0 0 0 4.13 9.32A11.5 11.5 0 0 1 11 66.39a66.66 66.66 0 0 1-6.47-31.82 16.1 16.1 0 0 0 5.75 1.61M4.56 34c.44-7.31 2.29-13.05 5-16.87.48 1.24 2.57 4.35 7.39 7.18-4.1 2.47-6 7.56-6.58 11.36A15.8 15.8 0 0 1 4.56 34m11.85 30.53c3.08 5.3 6.12 8.46 8.45 10.13A11.54 11.54 0 0 1 21.32 79c-4-2.7-7.4-7-10.07-12.13a11.8 11.8 0 0 0 5.16-2.34M25.33 75A12.2 12.2 0 0 0 28 76.46 12.2 12.2 0 0 0 30.67 75a12 12 0 0 0 3.53 4.34 18.7 18.7 0 0 1-3.58 1.78s0-.09 0-.13c-.26-1.32-2-1.59-2.61-1.59s-2.35.27-2.61 1.59v.13a18.7 18.7 0 0 1-3.58-1.78A12 12 0 0 0 25.33 75m5.81-.32c2.33-1.67 5.37-4.83 8.45-10.13a11.8 11.8 0 0 0 5.16 2.36C42.08 72 38.69 76.32 34.68 79a11.54 11.54 0 0 1-3.54-4.34Zm8.72-10.61A49.5 49.5 0 0 0 44 54.73a44 44 0 0 0 1.66-7.32 44.3 44.3 0 0 0 .34-7.92 33 33 0 0 0-.32-3.31 16.1 16.1 0 0 0 5.75-1.61A66.66 66.66 0 0 1 45 66.39a11.5 11.5 0 0 1-5.14-2.34Zm5.78-28.4c-.62-3.8-2.5-8.8-6.58-11.36 4.82-2.83 6.92-5.94 7.39-7.18 2.69 3.82 4.55 9.56 5 16.87a15.8 15.8 0 0 1-5.81 1.65ZM25 84.76a23.3 23.3 0 0 1-5.87-2.93 27.5 27.5 0 0 1-3.25-2.62 31 31 0 0 1-2.35-2.47q-.76-.88-1.46-1.81a47.5 47.5 0 0 1-5.58-9.69A64 64 0 0 1 3.09 55 70.5 70.5 0 0 1 1.3 44.19a64.6 64.6 0 0 1-.07-10.84c.17-1.92.4-3.85.77-5.76A39 39 0 0 1 3.4 22a31 31 0 0 1 2.1-4.86 21 21 0 0 1 3.15-4.44 16.2 16.2 0 0 1 4-3.1 14 14 0 0 1 1.93-.87q.51-.18 1-.32a9 9 0 0 1 1-.26 14 14 0 0 1 2.56-.21 7.6 7.6 0 0 1 3.88 1 8 8 0 0 1 3.34 6c.39 4.52-4.21 5.23-5.11 5.22-.14 0-.21-.13.24-.59a6.53 6.53 0 0 0 1-5.1c-.44-2.07-1.9-3.69-4-3.69a11.16 11.16 0 0 0-8.12 3.89A22.8 22.8 0 0 0 6 22.61 42.7 42.7 0 0 0 3.76 34 62.4 62.4 0 0 0 4 44.63a69 69 0 0 0 1.94 10.59 61 61 0 0 0 3.53 9.85 43.4 43.4 0 0 0 5.48 9A25.9 25.9 0 0 0 23.08 81a18 18 0 0 0 2.21 1 6.7 6.7 0 0 0 .71 3 6.6 6.6 0 0 1-1-.24m3.29 1.55a.6.6 0 0 1-.31.21.6.6 0 0 1-.31-.21 6.5 6.5 0 0 1-1.51-5.17c.12-.64 1.2-.93 1.82-.94s1.7.3 1.82.94a6.5 6.5 0 0 1-1.49 5.16ZM54.7 44.19A70.5 70.5 0 0 1 52.91 55a64 64 0 0 1-3.42 10.2 47.5 47.5 0 0 1-5.58 9.69q-.7.93-1.46 1.81a31 31 0 0 1-2.35 2.47 27.5 27.5 0 0 1-3.25 2.62A23.3 23.3 0 0 1 31 84.76a6.6 6.6 0 0 1-1 .24 6.7 6.7 0 0 0 .67-3.1 18 18 0 0 0 2.21-1 25.9 25.9 0 0 0 8.13-6.87 43.4 43.4 0 0 0 5.48-9 61 61 0 0 0 3.53-9.85A69 69 0 0 0 52 44.63 62.4 62.4 0 0 0 52.24 34 42.7 42.7 0 0 0 50 22.61a22.8 22.8 0 0 0-4.47-7.87 11.16 11.16 0 0 0-8.12-3.89c-2.12 0-3.58 1.62-4 3.69a6.53 6.53 0 0 0 1 5.1c.45.46.38.59.24.59-.9 0-5.51-.71-5.11-5.22a8 8 0 0 1 3.34-6 7.6 7.6 0 0 1 3.88-1 14 14 0 0 1 2.56.21 9 9 0 0 1 1 .26q.52.14 1 .32a14 14 0 0 1 1.93.87 16.2 16.2 0 0 1 4 3.1 21 21 0 0 1 3.15 4.44A31 31 0 0 1 52.6 22a39 39 0 0 1 1.4 5.59c.35 1.91.58 3.84.74 5.77a64.6 64.6 0 0 1-.04 10.83" transform="translate(-.25 -.36)" style="fill:#282728"/><path d="M45 39.63c-.11-2.69-.9-10.9-6.48-14.46A9.4 9.4 0 0 0 34.18 24c-2.74-.18-4.77.87-6.14.91H28c-1.37 0-3.42-1.09-6.16-.91a9.35 9.35 0 0 0-4.37 1.21c-5.62 3.52-6.4 11.73-6.47 14.42a43.5 43.5 0 0 0 3.54 19c3.82 8.49 8.46 14.51 13.09 16.56l.37.16.37-.16c4.61-2 9.27-8.06 13.14-16.57A43.5 43.5 0 0 0 45 39.63" transform="translate(-.25 -.36)" style="fill:#c5050c"/><path d="M36.3 33.18V35h.55a1.17 1.17 0 0 1 .82.28 1.27 1.27 0 0 1 .21 1.11s-3.74 16.19-4.45 19.27c-.82-3.9-5.26-25.18-5.26-25.18v-.09h-.9v.1L23.4 55.32 19 36.37a3 3 0 0 1 0-.28 1.27 1.27 0 0 1 .31-1 1 1 0 0 1 .69-.17h.37v-1.8h-6.24v1.76h.28a1.16 1.16 0 0 1 .95.83L23 68.48v.09h1.1v-.1l3.56-23.3 4.53 23.31v.09h1l7.25-32.78a1 1 0 0 1 1-.75h.43v-1.86z" transform="translate(-.25 -.36)" style="fill:#fff"/></svg>